<mxfile host="app.diagrams.net" agent="Mozilla/5.0 (Windows NT 10.0; Win64; x64) AppleWebKit/537.36 (KHTML, like Gecko) Chrome/134.0.0.0 Safari/537.36 OPR/119.0.0.0" version="27.1.6">
  <diagram name="Página-1" id="HS4sI3cex7thPgb8uXr3">
    <mxGraphModel dx="861" dy="546" grid="1" gridSize="10" guides="1" tooltips="1" connect="1" arrows="1" fold="1" page="1" pageScale="1" pageWidth="827" pageHeight="1169" math="0" shadow="0">
      <root>
        <mxCell id="0" />
        <mxCell id="1" parent="0" />
        <mxCell id="dfMxvdRBS-tTB70mxcUj-1" value="INICIO" style="ellipse;whiteSpace=wrap;html=1;" vertex="1" parent="1">
          <mxGeometry x="300" y="10" width="60" height="40" as="geometry" />
        </mxCell>
        <mxCell id="dfMxvdRBS-tTB70mxcUj-2" value="" style="rounded=0;whiteSpace=wrap;html=1;" vertex="1" parent="1">
          <mxGeometry x="150" y="120" width="120" height="60" as="geometry" />
        </mxCell>
        <mxCell id="dfMxvdRBS-tTB70mxcUj-3" value="" style="rhombus;whiteSpace=wrap;html=1;" vertex="1" parent="1">
          <mxGeometry x="570" y="30" width="80" height="80" as="geometry" />
        </mxCell>
        <mxCell id="dfMxvdRBS-tTB70mxcUj-5" value="" style="shape=document;whiteSpace=wrap;html=1;boundedLbl=1;" vertex="1" parent="1">
          <mxGeometry x="50" y="30" width="120" height="80" as="geometry" />
        </mxCell>
        <mxCell id="dfMxvdRBS-tTB70mxcUj-28" style="edgeStyle=orthogonalEdgeStyle;rounded=0;orthogonalLoop=1;jettySize=auto;html=1;entryX=0.5;entryY=0;entryDx=0;entryDy=0;" edge="1" parent="1" source="dfMxvdRBS-tTB70mxcUj-6" target="dfMxvdRBS-tTB70mxcUj-7">
          <mxGeometry relative="1" as="geometry" />
        </mxCell>
        <mxCell id="dfMxvdRBS-tTB70mxcUj-6" value="INICIO" style="ellipse;whiteSpace=wrap;html=1;" vertex="1" parent="1">
          <mxGeometry x="380" y="150" width="60" height="40" as="geometry" />
        </mxCell>
        <mxCell id="dfMxvdRBS-tTB70mxcUj-29" style="edgeStyle=orthogonalEdgeStyle;rounded=0;orthogonalLoop=1;jettySize=auto;html=1;entryX=1;entryY=0.5;entryDx=0;entryDy=0;" edge="1" parent="1" source="dfMxvdRBS-tTB70mxcUj-7" target="dfMxvdRBS-tTB70mxcUj-18">
          <mxGeometry relative="1" as="geometry" />
        </mxCell>
        <mxCell id="dfMxvdRBS-tTB70mxcUj-7" value="&lt;span style=&quot;color: rgb(0, 0, 0); font-size: 11px;&quot;&gt;Seleccionar área y tema a estudiar&lt;/span&gt;" style="rounded=0;whiteSpace=wrap;html=1;fillColor=#f5f5f5;fontColor=#333333;strokeColor=#666666;" vertex="1" parent="1">
          <mxGeometry x="365" y="250" width="90" height="40" as="geometry" />
        </mxCell>
        <mxCell id="dfMxvdRBS-tTB70mxcUj-8" value="Plantear problema" style="rounded=0;whiteSpace=wrap;html=1;fillColor=#f5f5f5;fontColor=#333333;strokeColor=#666666;" vertex="1" parent="1">
          <mxGeometry x="369" y="370" width="90" height="40" as="geometry" />
        </mxCell>
        <mxCell id="dfMxvdRBS-tTB70mxcUj-12" style="edgeStyle=orthogonalEdgeStyle;rounded=0;orthogonalLoop=1;jettySize=auto;html=1;" edge="1" parent="1" source="dfMxvdRBS-tTB70mxcUj-9">
          <mxGeometry relative="1" as="geometry">
            <mxPoint x="410" y="930" as="targetPoint" />
          </mxGeometry>
        </mxCell>
        <mxCell id="dfMxvdRBS-tTB70mxcUj-16" style="edgeStyle=orthogonalEdgeStyle;rounded=0;orthogonalLoop=1;jettySize=auto;html=1;" edge="1" parent="1" source="dfMxvdRBS-tTB70mxcUj-9">
          <mxGeometry relative="1" as="geometry">
            <mxPoint x="510" y="810" as="targetPoint" />
          </mxGeometry>
        </mxCell>
        <mxCell id="dfMxvdRBS-tTB70mxcUj-9" value="¿Hay suficiente información?" style="rhombus;whiteSpace=wrap;html=1;" vertex="1" parent="1">
          <mxGeometry x="360" y="760" width="100" height="100" as="geometry" />
        </mxCell>
        <mxCell id="dfMxvdRBS-tTB70mxcUj-13" value="Si" style="text;html=1;align=center;verticalAlign=middle;resizable=0;points=[];autosize=1;strokeColor=none;fillColor=none;" vertex="1" parent="1">
          <mxGeometry x="370" y="850" width="30" height="30" as="geometry" />
        </mxCell>
        <mxCell id="dfMxvdRBS-tTB70mxcUj-14" value="No" style="text;html=1;align=center;verticalAlign=middle;resizable=0;points=[];autosize=1;strokeColor=none;fillColor=none;" vertex="1" parent="1">
          <mxGeometry x="450" y="770" width="40" height="30" as="geometry" />
        </mxCell>
        <mxCell id="dfMxvdRBS-tTB70mxcUj-17" value="Buscar antecedentes" style="rounded=0;whiteSpace=wrap;html=1;fillColor=#f5f5f5;fontColor=#333333;strokeColor=#666666;" vertex="1" parent="1">
          <mxGeometry x="365" y="530" width="90" height="40" as="geometry" />
        </mxCell>
        <mxCell id="dfMxvdRBS-tTB70mxcUj-18" value="Identificar fenomeno" style="rounded=0;whiteSpace=wrap;html=1;" vertex="1" parent="1">
          <mxGeometry x="230" y="250" width="90" height="40" as="geometry" />
        </mxCell>
        <mxCell id="dfMxvdRBS-tTB70mxcUj-19" value="Formulacion de hipotesis" style="rounded=0;whiteSpace=wrap;html=1;fillColor=#f5f5f5;fontColor=#333333;strokeColor=#666666;" vertex="1" parent="1">
          <mxGeometry x="365" y="930" width="90" height="40" as="geometry" />
        </mxCell>
        <mxCell id="dfMxvdRBS-tTB70mxcUj-20" value="Metodologia" style="rounded=0;whiteSpace=wrap;html=1;fillColor=#f5f5f5;fontColor=#333333;strokeColor=#666666;" vertex="1" parent="1">
          <mxGeometry x="365" y="980" width="90" height="40" as="geometry" />
        </mxCell>
        <mxCell id="dfMxvdRBS-tTB70mxcUj-21" value="Recoleecion de datos" style="rounded=0;whiteSpace=wrap;html=1;fillColor=#f5f5f5;fontColor=#333333;strokeColor=#666666;" vertex="1" parent="1">
          <mxGeometry x="365" y="1050" width="90" height="40" as="geometry" />
        </mxCell>
        <mxCell id="dfMxvdRBS-tTB70mxcUj-22" value="Analisis de los datos" style="rounded=0;whiteSpace=wrap;html=1;fillColor=#f5f5f5;fontColor=#333333;strokeColor=#666666;" vertex="1" parent="1">
          <mxGeometry x="369" y="1110" width="90" height="40" as="geometry" />
        </mxCell>
        <mxCell id="dfMxvdRBS-tTB70mxcUj-23" value="Analisis de los datos" style="rounded=0;whiteSpace=wrap;html=1;fillColor=#f5f5f5;fontColor=#333333;strokeColor=#666666;" vertex="1" parent="1">
          <mxGeometry x="510" y="1200" width="90" height="40" as="geometry" />
        </mxCell>
        <mxCell id="dfMxvdRBS-tTB70mxcUj-24" value="¿La hipótesis es apoyada por los datos?" style="rhombus;whiteSpace=wrap;html=1;fontSize=10;" vertex="1" parent="1">
          <mxGeometry x="360" y="1170" width="100" height="100" as="geometry" />
        </mxCell>
        <mxCell id="dfMxvdRBS-tTB70mxcUj-25" value="Definir variables" style="rounded=0;whiteSpace=wrap;html=1;" vertex="1" parent="1">
          <mxGeometry x="510" y="370" width="90" height="40" as="geometry" />
        </mxCell>
        <mxCell id="dfMxvdRBS-tTB70mxcUj-32" value="Contextualizar el problema" style="rounded=0;whiteSpace=wrap;html=1;" vertex="1" parent="1">
          <mxGeometry x="250" y="590" width="90" height="40" as="geometry" />
        </mxCell>
        <mxCell id="dfMxvdRBS-tTB70mxcUj-33" value="Analizar fuentes secundarias" style="rounded=0;whiteSpace=wrap;html=1;" vertex="1" parent="1">
          <mxGeometry x="250" y="530" width="90" height="40" as="geometry" />
        </mxCell>
        <mxCell id="dfMxvdRBS-tTB70mxcUj-40" value="Establecer enfoque y objetivos del estudio." style="rounded=0;whiteSpace=wrap;html=1;fontSize=10;" vertex="1" parent="1">
          <mxGeometry x="510" y="430" width="90" height="40" as="geometry" />
        </mxCell>
        <mxCell id="dfMxvdRBS-tTB70mxcUj-41" value="Delimitar el tema de investigación" style="rounded=0;whiteSpace=wrap;html=1;fontSize=11;" vertex="1" parent="1">
          <mxGeometry x="230" y="310" width="90" height="40" as="geometry" />
        </mxCell>
      </root>
    </mxGraphModel>
  </diagram>
</mxfile>
